FILE "World Heroes Perfect (1995)(ADK - SNK)(JP)(en-ja).img" BINARY
  TRACK 01 MODE1/2352
    INDEX 01 00:00:00
  TRACK 02 AUDIO
    PREGAP 00:02:00
    INDEX 01 02:49:67
  TRACK 03 AUDIO
    INDEX 00 03:07:18
    INDEX 01 03:09:18
  TRACK 04 AUDIO
    INDEX 00 03:43:74
    INDEX 01 03:45:74
  TRACK 05 AUDIO
    INDEX 00 04:25:18
    INDEX 01 04:27:18
  TRACK 06 AUDIO
    INDEX 00 07:42:04
    INDEX 01 07:44:04
  TRACK 07 AUDIO
    INDEX 00 10:58:57
    INDEX 01 11:00:57
  TRACK 08 AUDIO
    INDEX 00 14:14:53
    INDEX 01 14:16:53
  TRACK 09 AUDIO
    INDEX 00 17:26:32
    INDEX 01 17:28:32
  TRACK 10 AUDIO
    INDEX 00 20:47:58
    INDEX 01 20:49:58
  TRACK 11 AUDIO
    INDEX 00 24:10:32
    INDEX 01 24:12:32
  TRACK 12 AUDIO
    INDEX 00 27:44:25
    INDEX 01 27:46:25
  TRACK 13 AUDIO
    INDEX 00 28:00:03
    INDEX 01 28:02:03
  TRACK 14 AUDIO
    INDEX 00 28:47:70
    INDEX 01 28:49:69
  TRACK 15 AUDIO
    INDEX 00 29:04:45
    INDEX 01 29:06:45
  TRACK 16 AUDIO
    INDEX 00 29:22:36
    INDEX 01 29:24:36
  TRACK 17 AUDIO
    INDEX 00 29:46:44
    INDEX 01 29:48:44
  TRACK 18 AUDIO
    INDEX 00 30:04:15
    INDEX 01 30:06:15
  TRACK 19 AUDIO
    INDEX 00 30:49:60
    INDEX 01 30:51:60
  TRACK 20 AUDIO
    INDEX 00 34:08:68
    INDEX 01 34:10:68
  TRACK 21 AUDIO
    INDEX 00 37:48:59
    INDEX 01 37:50:59
  TRACK 22 AUDIO
    INDEX 00 41:00:07
    INDEX 01 41:02:07
  TRACK 23 AUDIO
    INDEX 00 41:43:61
    INDEX 01 41:45:61
  TRACK 24 AUDIO
    INDEX 00 45:00:56
    INDEX 01 45:02:56
  TRACK 25 AUDIO
    INDEX 00 45:51:37
    INDEX 01 45:53:37
  TRACK 26 AUDIO
    INDEX 00 49:08:41
    INDEX 01 49:10:41
  TRACK 27 AUDIO
    INDEX 00 49:52:00
    INDEX 01 49:54:00
  TRACK 28 AUDIO
    INDEX 00 50:25:67
    INDEX 01 50:27:67
  TRACK 29 AUDIO
    INDEX 00 51:11:72
    INDEX 01 51:13:72
  TRACK 30 AUDIO
    INDEX 00 51:58:50
    INDEX 01 52:00:50
  TRACK 31 AUDIO
    INDEX 00 52:59:14
    INDEX 01 53:01:14
  TRACK 32 AUDIO
    INDEX 00 53:44:71
    INDEX 01 53:46:71
  TRACK 33 AUDIO
    INDEX 00 55:12:65
    INDEX 01 55:14:65
  TRACK 34 AUDIO
    INDEX 00 56:41:45
    INDEX 01 56:43:45
  TRACK 35 AUDIO
    INDEX 00 58:07:23
    INDEX 01 58:09:23
  TRACK 36 AUDIO
    INDEX 00 59:08:05
    INDEX 01 59:10:05
  TRACK 37 AUDIO
    INDEX 00 61:16:41
    INDEX 01 61:18:41
  TRACK 38 AUDIO
    INDEX 00 61:57:19
    INDEX 01 61:59:19
  TRACK 39 AUDIO
    INDEX 00 62:38:19
    INDEX 01 62:40:19
  TRACK 40 AUDIO
    INDEX 00 63:38:60
    INDEX 01 63:40:60
  TRACK 41 AUDIO
    INDEX 00 64:22:74
    INDEX 01 64:24:74
  TRACK 42 AUDIO
    INDEX 00 65:39:65
    INDEX 01 65:41:65
  TRACK 43 AUDIO
    INDEX 00 67:09:06
    INDEX 01 67:11:06
  TRACK 44 AUDIO
    INDEX 00 67:55:33
    INDEX 01 67:57:33
  TRACK 45 AUDIO
    INDEX 00 69:21:46
    INDEX 01 69:23:46
  TRACK 46 AUDIO
    INDEX 00 70:19:23
    INDEX 01 70:21:23
  TRACK 47 AUDIO
    INDEX 00 71:46:08
    INDEX 01 71:48:08
